<svg width="123" height="48" viewBox="0 0 123 48" fill="none" xmlns="http://www.w3.org/2000/svg">
<circle cx="24" cy="24" r="24" fill="#FFD834"/>
<path d="M24 36C30.6274 36 36 30.6274 36 24C36 17.3726 30.6274 12 24 12C17.3726 12 12 17.3726 12 24C12 30.6274 17.3726 36 24 36Z" stroke="#304D95" stroke-width="2" stroke-miterlimit="10"/>
<path d="M24 28C26.7614 28 29 25.7614 29 23C29 20.2386 26.7614 18 24 18C21.2386 18 19 20.2386 19 23C19 25.7614 21.2386 28 24 28Z" stroke="#304D95" stroke-width="2" stroke-miterlimit="10"/>
<path d="M15.9749 32.9218C16.7281 31.4408 17.8765 30.1971 19.2929 29.3284C20.7093 28.4598 22.3384 28 24 28C25.6615 28 27.2906 28.4598 28.707 29.3284C30.1234 30.1971 31.2718 31.4407 32.0251 32.9217" stroke="#304D95" stroke-width="2" stroke-linecap="round" stroke-linejoin="round"/>
<path d="M66.5781 21.2031L66.0312 19.7656H61.375L60.8281 21.2344C60.6146 21.8073 60.4323 22.1953 60.2812 22.3984C60.1302 22.5964 59.8828 22.6953 59.5391 22.6953C59.2474 22.6953 58.9896 22.5885 58.7656 22.375C58.5417 22.1615 58.4297 21.9193 58.4297 21.6484C58.4297 21.4922 58.4557 21.3307 58.5078 21.1641C58.5599 20.9974 58.6458 20.7656 58.7656 20.4688L61.6953 13.0312C61.7786 12.8177 61.8776 12.5625 61.9922 12.2656C62.112 11.9635 62.237 11.7135 62.3672 11.5156C62.5026 11.3177 62.6771 11.1589 62.8906 11.0391C63.1094 10.9141 63.3776 10.8516 63.6953 10.8516C64.0182 10.8516 64.2865 10.9141 64.5 11.0391C64.7188 11.1589 64.8932 11.3151 65.0234 11.5078C65.1589 11.7005 65.2708 11.9089 65.3594 12.1328C65.4531 12.3516 65.5703 12.6458 65.7109 13.0156L68.7031 20.4062C68.9375 20.9688 69.0547 21.3776 69.0547 21.6328C69.0547 21.8984 68.9427 22.1432 68.7188 22.3672C68.5 22.5859 68.2344 22.6953 67.9219 22.6953C67.7396 22.6953 67.5833 22.6615 67.4531 22.5938C67.3229 22.5312 67.2135 22.4453 67.125 22.3359C67.0365 22.2214 66.9401 22.0495 66.8359 21.8203C66.737 21.5859 66.651 21.3802 66.5781 21.2031ZM61.9844 18.0234H65.4062L63.6797 13.2969L61.9844 18.0234ZM77.4609 21.4766V21.2656C77.1745 21.5938 76.8906 21.862 76.6094 22.0703C76.3333 22.2734 76.0312 22.4271 75.7031 22.5312C75.3802 22.6406 75.026 22.6953 74.6406 22.6953C74.1302 22.6953 73.6562 22.5885 73.2188 22.375C72.7865 22.1562 72.4115 21.8464 72.0938 21.4453C71.776 21.0443 71.5339 20.5729 71.3672 20.0312C71.2057 19.4896 71.125 18.9036 71.125 18.2734C71.125 16.9401 71.4505 15.901 72.1016 15.1562C72.7526 14.4115 73.6094 14.0391 74.6719 14.0391C75.2865 14.0391 75.8047 14.1458 76.2266 14.3594C76.6484 14.5677 77.0599 14.8906 77.4609 15.3281V12.1797C77.4609 11.7422 77.5469 11.4115 77.7188 11.1875C77.8958 10.9635 78.1458 10.8516 78.4688 10.8516C78.7917 10.8516 79.0391 10.9557 79.2109 11.1641C79.388 11.3672 79.4766 11.6693 79.4766 12.0703V21.4766C79.4766 21.8828 79.3828 22.1875 79.1953 22.3906C79.0078 22.5938 78.7656 22.6953 78.4688 22.6953C78.1771 22.6953 77.9349 22.5911 77.7422 22.3828C77.5547 22.1693 77.4609 21.8672 77.4609 21.4766ZM73.2656 18.3438C73.2656 18.9219 73.3542 19.4141 73.5312 19.8203C73.7135 20.2266 73.9609 20.5339 74.2734 20.7422C74.5859 20.9453 74.9271 21.0469 75.2969 21.0469C75.6719 21.0469 76.013 20.9505 76.3203 20.7578C76.6328 20.5599 76.8802 20.2604 77.0625 19.8594C77.25 19.4531 77.3438 18.9479 77.3438 18.3438C77.3438 17.776 77.25 17.2891 77.0625 16.8828C76.8802 16.4714 76.6302 16.1589 76.3125 15.9453C76 15.7266 75.6562 15.6172 75.2812 15.6172C74.8906 15.6172 74.5417 15.7292 74.2344 15.9531C73.9271 16.1719 73.6875 16.4896 73.5156 16.9062C73.349 17.3177 73.2656 17.7969 73.2656 18.3438ZM89.7109 18.5156V21.3516C89.7109 21.7995 89.6094 22.1354 89.4062 22.3594C89.2031 22.5833 88.9349 22.6953 88.6016 22.6953C88.2786 22.6953 88.0156 22.5833 87.8125 22.3594C87.6146 22.1354 87.5156 21.7995 87.5156 21.3516V17.9531C87.5156 17.4167 87.4974 17 87.4609 16.7031C87.4245 16.4062 87.3255 16.1641 87.1641 15.9766C87.0026 15.7839 86.7474 15.6875 86.3984 15.6875C85.7005 15.6875 85.2396 15.9271 85.0156 16.4062C84.7969 16.8854 84.6875 17.5729 84.6875 18.4688V21.3516C84.6875 21.7943 84.5859 22.1302 84.3828 22.3594C84.1849 22.5833 83.9219 22.6953 83.5938 22.6953C83.2708 22.6953 83.0052 22.5833 82.7969 22.3594C82.5938 22.1302 82.4922 21.7943 82.4922 21.3516V15.25C82.4922 14.849 82.5833 14.5443 82.7656 14.3359C82.9531 14.1276 83.1979 14.0234 83.5 14.0234C83.7917 14.0234 84.0339 14.1224 84.2266 14.3203C84.4245 14.513 84.5234 14.7812 84.5234 15.125V15.3281C84.8932 14.8854 85.2891 14.5599 85.7109 14.3516C86.1328 14.1432 86.6016 14.0391 87.1172 14.0391C87.6536 14.0391 88.1146 14.1458 88.5 14.3594C88.8854 14.5729 89.2031 14.8958 89.4531 15.3281C89.8125 14.8906 90.1979 14.5677 90.6094 14.3594C91.0208 14.1458 91.4766 14.0391 91.9766 14.0391C92.5599 14.0391 93.0625 14.1536 93.4844 14.3828C93.9062 14.612 94.2214 14.9401 94.4297 15.3672C94.612 15.7526 94.7031 16.3594 94.7031 17.1875V21.3516C94.7031 21.7995 94.6016 22.1354 94.3984 22.3594C94.1953 22.5833 93.9271 22.6953 93.5938 22.6953C93.2708 22.6953 93.0052 22.5833 92.7969 22.3594C92.5938 22.1302 92.4922 21.7943 92.4922 21.3516V17.7656C92.4922 17.3073 92.4714 16.9401 92.4297 16.6641C92.3932 16.388 92.2891 16.1562 92.1172 15.9688C91.9453 15.7812 91.6849 15.6875 91.3359 15.6875C91.0547 15.6875 90.7865 15.7708 90.5312 15.9375C90.2812 16.1042 90.0859 16.3281 89.9453 16.6094C89.7891 16.9688 89.7109 17.6042 89.7109 18.5156ZM99.9062 15.2344V21.3984C99.9062 21.8255 99.8047 22.1484 99.6016 22.3672C99.3984 22.5859 99.1406 22.6953 98.8281 22.6953C98.5156 22.6953 98.2604 22.5833 98.0625 22.3594C97.8698 22.1354 97.7734 21.8151 97.7734 21.3984V15.2969C97.7734 14.875 97.8698 14.5573 98.0625 14.3438C98.2604 14.1302 98.5156 14.0234 98.8281 14.0234C99.1406 14.0234 99.3984 14.1302 99.6016 14.3438C99.8047 14.5573 99.9062 14.8542 99.9062 15.2344ZM98.8516 13.0312C98.5547 13.0312 98.2995 12.9401 98.0859 12.7578C97.8776 12.5755 97.7734 12.3177 97.7734 11.9844C97.7734 11.6823 97.8802 11.4349 98.0938 11.2422C98.3125 11.0443 98.5651 10.9453 98.8516 10.9453C99.1276 10.9453 99.3724 11.0339 99.5859 11.2109C99.7995 11.388 99.9062 11.6458 99.9062 11.9844C99.9062 12.3125 99.8021 12.5703 99.5938 12.7578C99.3854 12.9401 99.138 13.0312 98.8516 13.0312ZM105.055 15.2031V15.4609C105.43 14.9661 105.839 14.6042 106.281 14.375C106.729 14.1406 107.242 14.0234 107.82 14.0234C108.383 14.0234 108.885 14.1458 109.328 14.3906C109.771 14.6354 110.102 14.9818 110.32 15.4297C110.461 15.6901 110.552 15.9714 110.594 16.2734C110.635 16.5755 110.656 16.9609 110.656 17.4297V21.3984C110.656 21.8255 110.557 22.1484 110.359 22.3672C110.167 22.5859 109.914 22.6953 109.602 22.6953C109.284 22.6953 109.026 22.5833 108.828 22.3594C108.63 22.1354 108.531 21.8151 108.531 21.3984V17.8438C108.531 17.1406 108.432 16.6042 108.234 16.2344C108.042 15.8594 107.654 15.6719 107.07 15.6719C106.69 15.6719 106.344 15.7865 106.031 16.0156C105.719 16.2396 105.49 16.5495 105.344 16.9453C105.24 17.263 105.188 17.8568 105.188 18.7266V21.3984C105.188 21.8307 105.086 22.1562 104.883 22.375C104.685 22.5885 104.427 22.6953 104.109 22.6953C103.802 22.6953 103.549 22.5833 103.352 22.3594C103.154 22.1354 103.055 21.8151 103.055 21.3984V15.2344C103.055 14.8281 103.143 14.526 103.32 14.3281C103.497 14.125 103.74 14.0234 104.047 14.0234C104.234 14.0234 104.404 14.0677 104.555 14.1562C104.706 14.2448 104.826 14.3776 104.914 14.5547C105.008 14.7318 105.055 14.9479 105.055 15.2031ZM117.203 21.4297V14.3203C115.88 15.3359 114.99 15.8438 114.531 15.8438C114.312 15.8438 114.117 15.7578 113.945 15.5859C113.779 15.4089 113.695 15.2057 113.695 14.9766C113.695 14.7109 113.779 14.5156 113.945 14.3906C114.112 14.2656 114.406 14.1042 114.828 13.9062C115.458 13.6094 115.961 13.2969 116.336 12.9688C116.716 12.6406 117.052 12.2734 117.344 11.8672C117.635 11.4609 117.826 11.2109 117.914 11.1172C118.003 11.0234 118.169 10.9766 118.414 10.9766C118.69 10.9766 118.911 11.0833 119.078 11.2969C119.245 11.5104 119.328 11.8047 119.328 12.1797V21.125C119.328 22.1719 118.971 22.6953 118.258 22.6953C117.94 22.6953 117.685 22.5885 117.492 22.375C117.299 22.1615 117.203 21.8464 117.203 21.4297Z" fill="white"/>
<path d="M59.26 37.5V29.1H60.244L64.012 35.448H63.484L67.204 29.1H68.188L68.2 37.5H67.048L67.036 30.912H67.312L64 36.48H63.448L60.112 30.912H60.412V37.5H59.26ZM74.5009 37.5V36.156L74.4409 35.904V33.612C74.4409 33.124 74.2969 32.748 74.0089 32.484C73.7289 32.212 73.3049 32.076 72.7369 32.076C72.3609 32.076 71.9929 32.14 71.6329 32.268C71.2729 32.388 70.9689 32.552 70.7209 32.76L70.2409 31.896C70.5689 31.632 70.9609 31.432 71.4169 31.296C71.8809 31.152 72.3649 31.08 72.8689 31.08C73.7409 31.08 74.4129 31.292 74.8849 31.716C75.3569 32.14 75.5929 32.788 75.5929 33.66V37.5H74.5009ZM72.4129 37.572C71.9409 37.572 71.5249 37.492 71.1649 37.332C70.8129 37.172 70.5409 36.952 70.3489 36.672C70.1569 36.384 70.0609 36.06 70.0609 35.7C70.0609 35.356 70.1409 35.044 70.3009 34.764C70.4689 34.484 70.7369 34.26 71.1049 34.092C71.4809 33.924 71.9849 33.84 72.6169 33.84H74.6329V34.668H72.6649C72.0889 34.668 71.7009 34.764 71.5009 34.956C71.3009 35.148 71.2009 35.38 71.2009 35.652C71.2009 35.964 71.3249 36.216 71.5729 36.408C71.8209 36.592 72.1649 36.684 72.6049 36.684C73.0369 36.684 73.4129 36.588 73.7329 36.396C74.0609 36.204 74.2969 35.924 74.4409 35.556L74.6689 36.348C74.5169 36.724 74.2489 37.024 73.8649 37.248C73.4809 37.464 72.9969 37.572 72.4129 37.572ZM81.1208 31.08C81.6408 31.08 82.0968 31.18 82.4888 31.38C82.8888 31.58 83.2008 31.884 83.4248 32.292C83.6488 32.7 83.7608 33.216 83.7608 33.84V37.5H82.6088V33.972C82.6088 33.356 82.4568 32.892 82.1528 32.58C81.8568 32.268 81.4368 32.112 80.8928 32.112C80.4848 32.112 80.1288 32.192 79.8248 32.352C79.5208 32.512 79.2848 32.748 79.1168 33.06C78.9568 33.372 78.8768 33.76 78.8768 34.224V37.5H77.7248V31.14H78.8288V32.856L78.6488 32.4C78.8568 31.984 79.1768 31.66 79.6088 31.428C80.0408 31.196 80.5448 31.08 81.1208 31.08ZM89.8408 37.5V36.156L89.7808 35.904V33.612C89.7808 33.124 89.6368 32.748 89.3488 32.484C89.0688 32.212 88.6448 32.076 88.0768 32.076C87.7008 32.076 87.3328 32.14 86.9728 32.268C86.6128 32.388 86.3088 32.552 86.0608 32.76L85.5808 31.896C85.9088 31.632 86.3008 31.432 86.7568 31.296C87.2208 31.152 87.7048 31.08 88.2088 31.08C89.0808 31.08 89.7528 31.292 90.2248 31.716C90.6968 32.14 90.9328 32.788 90.9328 33.66V37.5H89.8408ZM87.7528 37.572C87.2808 37.572 86.8648 37.492 86.5048 37.332C86.1528 37.172 85.8808 36.952 85.6888 36.672C85.4968 36.384 85.4008 36.06 85.4008 35.7C85.4008 35.356 85.4808 35.044 85.6408 34.764C85.8088 34.484 86.0768 34.26 86.4448 34.092C86.8208 33.924 87.3248 33.84 87.9568 33.84H89.9728V34.668H88.0048C87.4288 34.668 87.0408 34.764 86.8408 34.956C86.6408 35.148 86.5408 35.38 86.5408 35.652C86.5408 35.964 86.6648 36.216 86.9128 36.408C87.1608 36.592 87.5048 36.684 87.9448 36.684C88.3768 36.684 88.7528 36.588 89.0728 36.396C89.4008 36.204 89.6368 35.924 89.7808 35.556L90.0088 36.348C89.8568 36.724 89.5888 37.024 89.2048 37.248C88.8208 37.464 88.3368 37.572 87.7528 37.572ZM95.8487 39.9C95.2647 39.9 94.6967 39.816 94.1447 39.648C93.6007 39.488 93.1567 39.256 92.8127 38.952L93.3647 38.064C93.6607 38.32 94.0247 38.52 94.4567 38.664C94.8887 38.816 95.3407 38.892 95.8127 38.892C96.5647 38.892 97.1167 38.716 97.4687 38.364C97.8207 38.012 97.9967 37.476 97.9967 36.756V35.412L98.1167 34.152L98.0567 32.88V31.14H99.1487V36.636C99.1487 37.756 98.8687 38.58 98.3087 39.108C97.7487 39.636 96.9287 39.9 95.8487 39.9ZM95.7047 37.236C95.0887 37.236 94.5367 37.108 94.0487 36.852C93.5687 36.588 93.1847 36.224 92.8967 35.76C92.6167 35.296 92.4767 34.76 92.4767 34.152C92.4767 33.536 92.6167 33 92.8967 32.544C93.1847 32.08 93.5687 31.72 94.0487 31.464C94.5367 31.208 95.0887 31.08 95.7047 31.08C96.2487 31.08 96.7447 31.192 97.1927 31.416C97.6407 31.632 97.9967 31.968 98.2607 32.424C98.5327 32.88 98.6687 33.456 98.6687 34.152C98.6687 34.84 98.5327 35.412 98.2607 35.868C97.9967 36.324 97.6407 36.668 97.1927 36.9C96.7447 37.124 96.2487 37.236 95.7047 37.236ZM95.8367 36.228C96.2607 36.228 96.6367 36.14 96.9647 35.964C97.2927 35.788 97.5487 35.544 97.7327 35.232C97.9247 34.92 98.0207 34.56 98.0207 34.152C98.0207 33.744 97.9247 33.384 97.7327 33.072C97.5487 32.76 97.2927 32.52 96.9647 32.352C96.6367 32.176 96.2607 32.088 95.8367 32.088C95.4127 32.088 95.0327 32.176 94.6967 32.352C94.3687 32.52 94.1087 32.76 93.9167 33.072C93.7327 33.384 93.6407 33.744 93.6407 34.152C93.6407 34.56 93.7327 34.92 93.9167 35.232C94.1087 35.544 94.3687 35.788 94.6967 35.964C95.0327 36.14 95.4127 36.228 95.8367 36.228ZM104.182 37.572C103.502 37.572 102.902 37.432 102.382 37.152C101.87 36.872 101.47 36.488 101.182 36C100.902 35.512 100.762 34.952 100.762 34.32C100.762 33.688 100.898 33.128 101.17 32.64C101.45 32.152 101.83 31.772 102.31 31.5C102.798 31.22 103.346 31.08 103.954 31.08C104.57 31.08 105.114 31.216 105.586 31.488C106.058 31.76 106.426 32.144 106.69 32.64C106.962 33.128 107.098 33.7 107.098 34.356C107.098 34.404 107.094 34.46 107.086 34.524C107.086 34.588 107.082 34.648 107.074 34.704H101.662V33.876H106.474L106.006 34.164C106.014 33.756 105.93 33.392 105.754 33.072C105.578 32.752 105.334 32.504 105.022 32.328C104.718 32.144 104.362 32.052 103.954 32.052C103.554 32.052 103.198 32.144 102.886 32.328C102.574 32.504 102.33 32.756 102.154 33.084C101.978 33.404 101.89 33.772 101.89 34.188V34.38C101.89 34.804 101.986 35.184 102.178 35.52C102.378 35.848 102.654 36.104 103.006 36.288C103.358 36.472 103.762 36.564 104.218 36.564C104.594 36.564 104.934 36.5 105.238 36.372C105.55 36.244 105.822 36.052 106.054 35.796L106.69 36.54C106.402 36.876 106.042 37.132 105.61 37.308C105.186 37.484 104.71 37.572 104.182 37.572ZM108.697 37.5V31.14H109.801V32.868L109.693 32.436C109.869 31.996 110.165 31.66 110.581 31.428C110.997 31.196 111.509 31.08 112.117 31.08V32.196C112.069 32.188 112.021 32.184 111.973 32.184C111.933 32.184 111.893 32.184 111.853 32.184C111.237 32.184 110.749 32.368 110.389 32.736C110.029 33.104 109.849 33.636 109.849 34.332V37.5H108.697Z" fill="white"/>
</svg>
