<svg width="250" height="112" viewBox="0 0 250 112" fill="none" xmlns="http://www.w3.org/2000/svg">
<path fill-rule="evenodd" clip-rule="evenodd" d="M222 28C237.464 28 250 15.464 250 0V28V84V112C250 96.536 237.464 84 222 84H28C12.536 84 0 71.464 0 56C0 40.536 12.536 28 28 28H222Z" fill="white"/>
<path d="M26.875 58.5C29.1187 58.5 30.9375 56.6812 30.9375 54.4375C30.9375 52.1938 29.1187 50.375 26.875 50.375C24.6313 50.375 22.8125 52.1938 22.8125 54.4375C22.8125 56.6812 24.6313 58.5 26.875 58.5Z" stroke="#304D95" stroke-width="2" stroke-miterlimit="10"/>
<path d="M32.1416 50.5263C32.7004 50.3689 33.2864 50.333 33.8602 50.4212C34.434 50.5093 34.9822 50.7193 35.468 51.0372C35.9538 51.355 36.3658 51.7733 36.6763 52.2638C36.9868 52.7543 37.1886 53.3056 37.2681 53.8807C37.3476 54.4557 37.303 55.0411 37.1372 55.5975C36.9714 56.1538 36.6883 56.6682 36.307 57.1059C35.9256 57.5436 35.4549 57.8945 34.9266 58.135C34.3982 58.3755 33.8244 58.4999 33.2439 58.5" stroke="#304D95" stroke-width="2" stroke-linecap="round" stroke-linejoin="round"/>
<path d="M21.2498 61.4216C21.8842 60.5191 22.7265 59.7825 23.7056 59.274C24.6846 58.7655 25.7716 58.5 26.8748 58.5C27.978 58.5 29.0651 58.7654 30.0441 59.2738C31.0232 59.7822 31.8656 60.5187 32.5001 61.4212" stroke="#304D95" stroke-width="2" stroke-linecap="round" stroke-linejoin="round"/>
<path d="M33.2439 58.5C34.3472 58.4992 35.4345 58.7643 36.4136 59.2728C37.3928 59.7813 38.235 60.5182 38.8689 61.4212" stroke="#304D95" stroke-width="2" stroke-linecap="round" stroke-linejoin="round"/>
<path d="M64.6973 52.5439H60.124V55.0049H64.335C64.6449 55.0049 64.875 55.0755 65.0254 55.2168C65.1803 55.3535 65.2578 55.5358 65.2578 55.7637C65.2578 55.9915 65.1826 56.1784 65.0322 56.3242C64.8818 56.4655 64.6494 56.5361 64.335 56.5361H60.124V59.3867H64.8545C65.1735 59.3867 65.4128 59.4619 65.5723 59.6123C65.7363 59.7581 65.8184 59.9541 65.8184 60.2002C65.8184 60.4372 65.7363 60.6309 65.5723 60.7812C65.4128 60.9271 65.1735 61 64.8545 61H59.3379C58.8958 61 58.5768 60.902 58.3809 60.7061C58.1895 60.5101 58.0938 60.1934 58.0938 59.7559V52.2227C58.0938 51.931 58.137 51.694 58.2236 51.5117C58.3102 51.3249 58.4447 51.1904 58.627 51.1084C58.8138 51.0218 59.0508 50.9785 59.3379 50.9785H64.6973C65.0208 50.9785 65.2601 51.0514 65.415 51.1973C65.5745 51.3385 65.6543 51.5254 65.6543 51.7578C65.6543 51.9948 65.5745 52.1862 65.415 52.332C65.2601 52.4733 65.0208 52.5439 64.6973 52.5439ZM69.9971 54.6152V54.8408C70.3252 54.4079 70.6829 54.0911 71.0703 53.8906C71.4622 53.6855 71.9111 53.583 72.417 53.583C72.9092 53.583 73.349 53.6901 73.7363 53.9043C74.1237 54.1185 74.4131 54.4215 74.6045 54.8135C74.7275 55.0413 74.8073 55.2874 74.8438 55.5518C74.8802 55.8161 74.8984 56.1533 74.8984 56.5635V60.0361C74.8984 60.4098 74.8118 60.6924 74.6387 60.8838C74.4701 61.0752 74.249 61.1709 73.9756 61.1709C73.6976 61.1709 73.472 61.0729 73.2988 60.877C73.1257 60.681 73.0391 60.4007 73.0391 60.0361V56.9258C73.0391 56.3105 72.9525 55.8411 72.7793 55.5176C72.6107 55.1895 72.2712 55.0254 71.7607 55.0254C71.4281 55.0254 71.125 55.1257 70.8516 55.3262C70.5781 55.5221 70.3776 55.7933 70.25 56.1396C70.1589 56.4176 70.1133 56.9372 70.1133 57.6982V60.0361C70.1133 60.4144 70.0244 60.6992 69.8467 60.8906C69.6735 61.0775 69.4479 61.1709 69.1699 61.1709C68.901 61.1709 68.68 61.0729 68.5068 60.877C68.3337 60.681 68.2471 60.4007 68.2471 60.0361V54.6426C68.2471 54.2871 68.3245 54.0228 68.4795 53.8496C68.6344 53.6719 68.8464 53.583 69.1152 53.583C69.2793 53.583 69.4274 53.6217 69.5596 53.6992C69.6917 53.7767 69.7965 53.8929 69.874 54.0479C69.9561 54.2028 69.9971 54.3919 69.9971 54.6152ZM77.8672 53.7471H78.0723V52.626C78.0723 52.3252 78.0791 52.0905 78.0928 51.9219C78.111 51.7487 78.1566 51.6006 78.2295 51.4775C78.3024 51.3499 78.4072 51.2474 78.5439 51.1699C78.6807 51.0879 78.8333 51.0469 79.002 51.0469C79.2389 51.0469 79.4531 51.1357 79.6445 51.3135C79.7721 51.432 79.8519 51.5778 79.8838 51.751C79.9202 51.9196 79.9385 52.1611 79.9385 52.4756V53.7471H80.6221C80.8864 53.7471 81.0869 53.8109 81.2236 53.9385C81.3649 54.0615 81.4355 54.221 81.4355 54.417C81.4355 54.6676 81.3353 54.8431 81.1348 54.9434C80.9388 55.0436 80.6562 55.0938 80.2871 55.0938H79.9385V58.5254C79.9385 58.8171 79.9476 59.0426 79.9658 59.2021C79.9886 59.3571 80.0433 59.4847 80.1299 59.585C80.221 59.6807 80.3669 59.7285 80.5674 59.7285C80.6768 59.7285 80.8249 59.7103 81.0117 59.6738C81.1986 59.6328 81.3444 59.6123 81.4492 59.6123C81.5996 59.6123 81.734 59.6738 81.8525 59.7969C81.9756 59.9154 82.0371 60.0635 82.0371 60.2412C82.0371 60.542 81.873 60.7721 81.5449 60.9316C81.2168 61.0911 80.7451 61.1709 80.1299 61.1709C79.5465 61.1709 79.1045 61.0729 78.8037 60.877C78.5029 60.681 78.3047 60.4098 78.209 60.0635C78.1178 59.7171 78.0723 59.2546 78.0723 58.6758V55.0938H77.8262C77.5573 55.0938 77.3522 55.0299 77.2109 54.9023C77.0697 54.7747 76.999 54.613 76.999 54.417C76.999 54.221 77.0719 54.0615 77.2178 53.9385C77.3682 53.8109 77.5846 53.7471 77.8672 53.7471ZM85.5938 54.6426V60.0361C85.5938 60.4098 85.5049 60.6924 85.3271 60.8838C85.1494 61.0752 84.9238 61.1709 84.6504 61.1709C84.377 61.1709 84.1536 61.0729 83.9805 60.877C83.8118 60.681 83.7275 60.4007 83.7275 60.0361V54.6973C83.7275 54.3281 83.8118 54.0501 83.9805 53.8633C84.1536 53.6764 84.377 53.583 84.6504 53.583C84.9238 53.583 85.1494 53.6764 85.3271 53.8633C85.5049 54.0501 85.5938 54.3099 85.5938 54.6426ZM84.6709 52.7148C84.4111 52.7148 84.1878 52.6351 84.001 52.4756C83.8187 52.3161 83.7275 52.0905 83.7275 51.7988C83.7275 51.5345 83.821 51.318 84.0078 51.1494C84.1992 50.9762 84.4202 50.8896 84.6709 50.8896C84.9124 50.8896 85.1266 50.9671 85.3135 51.1221C85.5003 51.277 85.5938 51.5026 85.5938 51.7988C85.5938 52.0859 85.5026 52.3115 85.3203 52.4756C85.138 52.6351 84.9215 52.7148 84.6709 52.7148ZM88.6309 53.7471H88.8359V52.626C88.8359 52.3252 88.8428 52.0905 88.8564 51.9219C88.8747 51.7487 88.9202 51.6006 88.9932 51.4775C89.0661 51.3499 89.1709 51.2474 89.3076 51.1699C89.4443 51.0879 89.597 51.0469 89.7656 51.0469C90.0026 51.0469 90.2168 51.1357 90.4082 51.3135C90.5358 51.432 90.6156 51.5778 90.6475 51.751C90.6839 51.9196 90.7021 52.1611 90.7021 52.4756V53.7471H91.3857C91.6501 53.7471 91.8506 53.8109 91.9873 53.9385C92.1286 54.0615 92.1992 54.221 92.1992 54.417C92.1992 54.6676 92.099 54.8431 91.8984 54.9434C91.7025 55.0436 91.4199 55.0938 91.0508 55.0938H90.7021V58.5254C90.7021 58.8171 90.7113 59.0426 90.7295 59.2021C90.7523 59.3571 90.807 59.4847 90.8936 59.585C90.9847 59.6807 91.1305 59.7285 91.3311 59.7285C91.4404 59.7285 91.5885 59.7103 91.7754 59.6738C91.9622 59.6328 92.1081 59.6123 92.2129 59.6123C92.3633 59.6123 92.4977 59.6738 92.6162 59.7969C92.7393 59.9154 92.8008 60.0635 92.8008 60.2412C92.8008 60.542 92.6367 60.7721 92.3086 60.9316C91.9805 61.0911 91.5088 61.1709 90.8936 61.1709C90.3102 61.1709 89.8682 61.0729 89.5674 60.877C89.2666 60.681 89.0684 60.4098 88.9727 60.0635C88.8815 59.7171 88.8359 59.2546 88.8359 58.6758V55.0938H88.5898C88.321 55.0938 88.1159 55.0299 87.9746 54.9023C87.8333 54.7747 87.7627 54.613 87.7627 54.417C87.7627 54.221 87.8356 54.0615 87.9814 53.9385C88.1318 53.8109 88.3483 53.7471 88.6309 53.7471ZM96.3574 54.6426V60.0361C96.3574 60.4098 96.2686 60.6924 96.0908 60.8838C95.9131 61.0752 95.6875 61.1709 95.4141 61.1709C95.1406 61.1709 94.9173 61.0729 94.7441 60.877C94.5755 60.681 94.4912 60.4007 94.4912 60.0361V54.6973C94.4912 54.3281 94.5755 54.0501 94.7441 53.8633C94.9173 53.6764 95.1406 53.583 95.4141 53.583C95.6875 53.583 95.9131 53.6764 96.0908 53.8633C96.2686 54.0501 96.3574 54.3099 96.3574 54.6426ZM95.4346 52.7148C95.1748 52.7148 94.9515 52.6351 94.7646 52.4756C94.5824 52.3161 94.4912 52.0905 94.4912 51.7988C94.4912 51.5345 94.5846 51.318 94.7715 51.1494C94.9629 50.9762 95.1839 50.8896 95.4346 50.8896C95.6761 50.8896 95.8903 50.9671 96.0771 51.1221C96.264 51.277 96.3574 51.5026 96.3574 51.7988C96.3574 52.0859 96.2663 52.3115 96.084 52.4756C95.9017 52.6351 95.6852 52.7148 95.4346 52.7148ZM104.501 57.835H100.851C100.855 58.2588 100.939 58.6325 101.104 58.9561C101.272 59.2796 101.493 59.5234 101.767 59.6875C102.045 59.8516 102.35 59.9336 102.683 59.9336C102.906 59.9336 103.109 59.9085 103.291 59.8584C103.478 59.8037 103.658 59.7217 103.831 59.6123C104.004 59.4984 104.164 59.3776 104.31 59.25C104.455 59.1224 104.645 58.9492 104.877 58.7305C104.973 58.6484 105.109 58.6074 105.287 58.6074C105.479 58.6074 105.633 58.6598 105.752 58.7646C105.87 58.8695 105.93 59.0176 105.93 59.209C105.93 59.3776 105.864 59.5758 105.731 59.8037C105.599 60.027 105.399 60.2435 105.13 60.4531C104.866 60.6582 104.531 60.8291 104.125 60.9658C103.724 61.1025 103.261 61.1709 102.737 61.1709C101.539 61.1709 100.607 60.8291 99.9414 60.1455C99.276 59.4619 98.9434 58.5345 98.9434 57.3633C98.9434 56.8118 99.0254 56.3014 99.1895 55.832C99.3535 55.3581 99.5928 54.9525 99.9072 54.6152C100.222 54.278 100.609 54.0205 101.069 53.8428C101.53 53.6605 102.04 53.5693 102.601 53.5693C103.33 53.5693 103.954 53.7243 104.474 54.0342C104.998 54.3395 105.39 54.736 105.649 55.2236C105.909 55.7113 106.039 56.208 106.039 56.7139C106.039 57.1833 105.905 57.4886 105.636 57.6299C105.367 57.7666 104.989 57.835 104.501 57.835ZM100.851 56.7754H104.234C104.189 56.1374 104.016 55.6611 103.715 55.3467C103.419 55.0277 103.027 54.8682 102.539 54.8682C102.074 54.8682 101.691 55.0299 101.391 55.3535C101.094 55.6725 100.914 56.1465 100.851 56.7754ZM114.627 58.7305C114.627 59.2454 114.502 59.6875 114.251 60.0566C114 60.4212 113.629 60.6992 113.137 60.8906C112.649 61.0775 112.054 61.1709 111.353 61.1709C110.683 61.1709 110.108 61.0684 109.63 60.8633C109.151 60.6582 108.798 60.403 108.57 60.0977C108.342 59.7878 108.229 59.4779 108.229 59.168C108.229 58.9629 108.301 58.7874 108.447 58.6416C108.593 58.4958 108.778 58.4229 109.001 58.4229C109.197 58.4229 109.347 58.4707 109.452 58.5664C109.557 58.6621 109.657 58.7965 109.753 58.9697C109.944 59.3024 110.172 59.5508 110.437 59.7148C110.705 59.8789 111.07 59.9609 111.53 59.9609C111.904 59.9609 112.209 59.8789 112.446 59.7148C112.688 59.5462 112.809 59.3548 112.809 59.1406C112.809 58.8125 112.683 58.5732 112.433 58.4229C112.187 58.2725 111.779 58.1289 111.209 57.9922C110.566 57.8327 110.042 57.6663 109.637 57.4932C109.236 57.3154 108.914 57.083 108.673 56.7959C108.431 56.5088 108.311 56.1556 108.311 55.7363C108.311 55.3626 108.422 55.0094 108.646 54.6768C108.869 54.3441 109.197 54.0798 109.63 53.8838C110.067 53.6833 110.594 53.583 111.209 53.583C111.692 53.583 112.125 53.6331 112.508 53.7334C112.895 53.8337 113.216 53.9681 113.472 54.1367C113.731 54.3053 113.927 54.4922 114.06 54.6973C114.196 54.9023 114.265 55.1029 114.265 55.2988C114.265 55.513 114.192 55.6885 114.046 55.8252C113.905 55.9619 113.702 56.0303 113.438 56.0303C113.246 56.0303 113.082 55.9756 112.945 55.8662C112.813 55.7568 112.66 55.5928 112.487 55.374C112.346 55.1917 112.18 55.0459 111.988 54.9365C111.797 54.8271 111.537 54.7725 111.209 54.7725C110.872 54.7725 110.591 54.8454 110.368 54.9912C110.145 55.1325 110.033 55.3102 110.033 55.5244C110.033 55.7204 110.115 55.8822 110.279 56.0098C110.443 56.1328 110.664 56.2354 110.942 56.3174C111.22 56.3994 111.603 56.4997 112.091 56.6182C112.67 56.7594 113.141 56.9281 113.506 57.124C113.875 57.32 114.153 57.5524 114.34 57.8213C114.531 58.0856 114.627 58.3887 114.627 58.7305Z" fill="#304D95"/>
<path d="M214 58L219 53L224 58" stroke="#304D95" stroke-width="2" stroke-linecap="round" stroke-linejoin="round"/>
</svg>
