<svg width="19" height="12" viewBox="0 0 19 12" fill="none" xmlns="http://www.w3.org/2000/svg">
<path d="M5.11517 11.6474C4.10438 11.6474 3.21419 11.412 2.44461 10.941C1.68652 10.4701 1.08923 9.79814 0.652757 8.92518C0.227765 8.04074 0.0152694 6.98975 0.0152694 5.7722C0.0152694 4.54317 0.227765 3.50367 0.652757 2.65368C1.08923 1.79221 1.68652 1.1375 2.44461 0.689532C3.21419 0.230082 4.10438 0.000356281 5.11517 0.000356281C6.12596 0.000356281 7.0104 0.230082 7.7685 0.689532C8.53808 1.1375 9.13536 1.79221 9.56035 2.65368C9.99683 3.51515 10.2151 4.55466 10.2151 5.7722C10.2151 6.98975 9.99683 8.04074 9.56035 8.92518C9.13536 9.79814 8.53808 10.4701 7.7685 10.941C7.0104 11.412 6.12596 11.6474 5.11517 11.6474ZM5.11517 9.45929C5.88475 9.45929 6.49352 9.12619 6.94149 8.45999C7.38945 7.79379 7.61343 6.89786 7.61343 5.7722C7.61343 4.64655 7.38945 3.76785 6.94149 3.13611C6.49352 2.50436 5.88475 2.18849 5.11517 2.18849C4.34559 2.18849 3.73682 2.50436 3.28885 3.13611C2.84089 3.76785 2.61691 4.64655 2.61691 5.7722C2.61691 6.89786 2.84089 7.79379 3.28885 8.45999C3.73682 9.12619 4.34559 9.45929 5.11517 9.45929ZM12.4795 11.4407V2.89489H14.547L14.7193 4.39385H14.7882C15.0983 3.81954 15.4717 3.39455 15.9081 3.11888C16.3446 2.83172 16.7811 2.68814 17.2176 2.68814C17.4588 2.68814 17.6598 2.70537 17.8206 2.73983C17.9814 2.7628 18.1192 2.803 18.2341 2.86044L17.8206 5.04857C17.6713 5.00262 17.5219 4.96816 17.3726 4.94519C17.2348 4.92222 17.074 4.91073 16.8902 4.91073C16.5686 4.91073 16.2297 5.03134 15.8737 5.27255C15.5291 5.50228 15.2419 5.9043 15.0122 6.47861V11.4407H12.4795Z" fill="#304D95"/>
</svg>
