<svg width="250" height="44" viewBox="0 0 250 44" fill="none" xmlns="http://www.w3.org/2000/svg">
<path d="M33.5946 18.7188L36.875 22L33.5946 25.2812" stroke="#304D95" stroke-width="1.5" stroke-linecap="round" stroke-linejoin="round"/>
<path d="M28.125 22H36.8727" stroke="#304D95" stroke-width="1.5" stroke-linecap="round" stroke-linejoin="round"/>
<path d="M28.125 28.875H23.75C23.5842 28.875 23.4253 28.8092 23.3081 28.6919C23.1908 28.5747 23.125 28.4158 23.125 28.25V15.75C23.125 15.5842 23.1908 15.4253 23.3081 15.3081C23.4253 15.1908 23.5842 15.125 23.75 15.125H28.125" stroke="#304D95" stroke-width="1.5" stroke-linecap="round" stroke-linejoin="round"/>
<path d="M60.083 18.0381V25.332H64.1982C64.5264 25.332 64.777 25.4118 64.9502 25.5713C65.1279 25.7308 65.2168 25.9313 65.2168 26.1729C65.2168 26.4189 65.1302 26.6195 64.957 26.7744C64.7839 26.9248 64.5309 27 64.1982 27H59.2969C58.8548 27 58.5358 26.902 58.3398 26.7061C58.1484 26.5101 58.0527 26.1934 58.0527 25.7559V18.0381C58.0527 17.6279 58.1439 17.3203 58.3262 17.1152C58.513 16.9102 58.7568 16.8076 59.0576 16.8076C59.363 16.8076 59.609 16.9102 59.7959 17.1152C59.9873 17.3158 60.083 17.6234 60.083 18.0381ZM74.4131 23.377C74.4131 23.9329 74.3265 24.4456 74.1533 24.915C73.9801 25.3844 73.7295 25.7878 73.4014 26.125C73.0732 26.4622 72.6813 26.722 72.2256 26.9043C71.7699 27.082 71.2572 27.1709 70.6875 27.1709C70.1224 27.1709 69.6143 27.0798 69.1631 26.8975C68.7119 26.7152 68.32 26.4554 67.9873 26.1182C67.6592 25.7764 67.4085 25.3753 67.2354 24.915C67.0667 24.4502 66.9824 23.9375 66.9824 23.377C66.9824 22.8118 67.069 22.2946 67.2422 21.8252C67.4154 21.3558 67.6637 20.9548 67.9873 20.6221C68.3109 20.2894 68.7028 20.0342 69.1631 19.8564C69.6234 19.6742 70.1315 19.583 70.6875 19.583C71.2526 19.583 71.7653 19.6742 72.2256 19.8564C72.6859 20.0387 73.0801 20.2985 73.4082 20.6357C73.7363 20.973 73.9847 21.374 74.1533 21.8389C74.3265 22.3037 74.4131 22.8164 74.4131 23.377ZM72.54 23.377C72.54 22.6159 72.3714 22.0234 72.0342 21.5996C71.7015 21.1758 71.2526 20.9639 70.6875 20.9639C70.3229 20.9639 70.0016 21.0596 69.7236 21.251C69.4456 21.4378 69.2314 21.7158 69.0811 22.085C68.9307 22.4541 68.8555 22.8848 68.8555 23.377C68.8555 23.8646 68.9284 24.2907 69.0742 24.6553C69.2246 25.0199 69.4365 25.3001 69.71 25.4961C69.988 25.6875 70.3138 25.7832 70.6875 25.7832C71.2526 25.7832 71.7015 25.5713 72.0342 25.1475C72.3714 24.7191 72.54 24.1289 72.54 23.377ZM83.7529 20.9502V26.3711C83.7529 26.9909 83.6868 27.5241 83.5547 27.9707C83.4225 28.4173 83.2106 28.7865 82.9189 29.0781C82.6273 29.3698 82.2445 29.5863 81.7705 29.7275C81.3011 29.8688 80.7155 29.9395 80.0137 29.9395C79.3711 29.9395 78.7969 29.8483 78.291 29.666C77.7852 29.4883 77.3955 29.2559 77.1221 28.9688C76.8486 28.6862 76.7119 28.3945 76.7119 28.0938C76.7119 27.8659 76.7894 27.679 76.9443 27.5332C77.0993 27.3919 77.2861 27.3213 77.5049 27.3213C77.7783 27.3213 78.0176 27.4421 78.2227 27.6836C78.3229 27.8066 78.4255 27.9297 78.5303 28.0527C78.6396 28.1803 78.7581 28.2874 78.8857 28.374C79.0179 28.4652 79.1751 28.5312 79.3574 28.5723C79.5397 28.6178 79.7493 28.6406 79.9863 28.6406C80.4694 28.6406 80.8431 28.5723 81.1074 28.4355C81.3763 28.3034 81.5632 28.1165 81.668 27.875C81.7773 27.6335 81.8411 27.3737 81.8594 27.0957C81.8776 26.8223 81.8913 26.3802 81.9004 25.7695C81.6133 26.1706 81.2806 26.4759 80.9023 26.6855C80.5286 26.8952 80.082 27 79.5625 27C78.9382 27 78.3913 26.8405 77.9219 26.5215C77.457 26.2025 77.0993 25.7559 76.8486 25.1816C76.598 24.6074 76.4727 23.9443 76.4727 23.1924C76.4727 22.6318 76.5479 22.126 76.6982 21.6748C76.8532 21.2236 77.0719 20.8431 77.3545 20.5332C77.637 20.2233 77.9629 19.9909 78.332 19.8359C78.7012 19.6764 79.1068 19.5967 79.5488 19.5967C80.0775 19.5967 80.5355 19.6992 80.9229 19.9043C81.3102 20.1048 81.6702 20.4215 82.0029 20.8545V20.6016C82.0029 20.278 82.0827 20.0273 82.2422 19.8496C82.4017 19.6719 82.6068 19.583 82.8574 19.583C83.2174 19.583 83.4567 19.7015 83.5752 19.9385C83.6937 20.1709 83.7529 20.5081 83.7529 20.9502ZM78.3457 23.3154C78.3457 24.0719 78.5098 24.6439 78.8379 25.0312C79.1706 25.4186 79.599 25.6123 80.123 25.6123C80.4329 25.6123 80.7246 25.5303 80.998 25.3662C81.276 25.1976 81.5016 24.9469 81.6748 24.6143C81.848 24.277 81.9346 23.8691 81.9346 23.3906C81.9346 22.6296 81.766 22.0371 81.4287 21.6133C81.096 21.1895 80.6562 20.9775 80.1094 20.9775C79.5762 20.9775 79.1478 21.1803 78.8242 21.5859C78.5052 21.9915 78.3457 22.568 78.3457 23.3154ZM95.6787 16.8076C96.7178 16.8076 97.6087 17.0195 98.3516 17.4434C99.099 17.8626 99.6641 18.4619 100.047 19.2412C100.43 20.016 100.621 20.9274 100.621 21.9756C100.621 22.7503 100.516 23.4544 100.307 24.0879C100.097 24.7214 99.7826 25.2705 99.3633 25.7354C98.944 26.2002 98.429 26.5557 97.8184 26.8018C97.2077 27.0479 96.5081 27.1709 95.7197 27.1709C94.9359 27.1709 94.234 27.0456 93.6143 26.7949C92.9945 26.5397 92.4772 26.182 92.0625 25.7217C91.6478 25.2614 91.3333 24.7077 91.1191 24.0605C90.9095 23.4134 90.8047 22.7139 90.8047 21.9619C90.8047 21.1917 90.9141 20.4854 91.1328 19.8428C91.3561 19.2002 91.6774 18.6533 92.0967 18.2021C92.516 17.751 93.0264 17.4069 93.6279 17.1699C94.2295 16.9284 94.9131 16.8076 95.6787 16.8076ZM98.5635 21.9619C98.5635 21.2282 98.445 20.5924 98.208 20.0547C97.971 19.5169 97.6315 19.1113 97.1895 18.8379C96.752 18.5599 96.2484 18.4209 95.6787 18.4209C95.2731 18.4209 94.8971 18.4984 94.5508 18.6533C94.209 18.8037 93.9128 19.0247 93.6621 19.3164C93.416 19.6081 93.2201 19.9818 93.0742 20.4375C92.9329 20.8887 92.8623 21.3968 92.8623 21.9619C92.8623 22.5316 92.9329 23.0465 93.0742 23.5068C93.2201 23.9671 93.4229 24.3499 93.6826 24.6553C93.9469 24.9561 94.2477 25.1816 94.585 25.332C94.9268 25.4824 95.3005 25.5576 95.7061 25.5576C96.2256 25.5576 96.7018 25.4277 97.1348 25.168C97.5723 24.9082 97.9186 24.5072 98.1738 23.9648C98.4336 23.4225 98.5635 22.7549 98.5635 21.9619ZM108.074 26.1182V25.8789C107.851 26.1615 107.616 26.3984 107.37 26.5898C107.124 26.7812 106.855 26.9225 106.563 27.0137C106.272 27.1094 105.939 27.1572 105.565 27.1572C105.114 27.1572 104.709 27.0638 104.349 26.877C103.993 26.6901 103.717 26.4326 103.521 26.1045C103.289 25.708 103.173 25.1383 103.173 24.3955V20.6973C103.173 20.3236 103.257 20.0456 103.426 19.8633C103.594 19.6764 103.818 19.583 104.096 19.583C104.378 19.583 104.606 19.6764 104.779 19.8633C104.952 20.0501 105.039 20.3281 105.039 20.6973V23.6846C105.039 24.1175 105.076 24.4821 105.148 24.7783C105.221 25.07 105.351 25.3001 105.538 25.4688C105.729 25.6328 105.987 25.7148 106.311 25.7148C106.625 25.7148 106.921 25.6214 107.199 25.4346C107.477 25.2477 107.68 25.0039 107.808 24.7031C107.912 24.4388 107.965 23.86 107.965 22.9668V20.6973C107.965 20.3281 108.051 20.0501 108.225 19.8633C108.398 19.6764 108.623 19.583 108.901 19.583C109.179 19.583 109.403 19.6764 109.571 19.8633C109.74 20.0456 109.824 20.3236 109.824 20.6973V26.1045C109.824 26.46 109.742 26.7266 109.578 26.9043C109.419 27.082 109.211 27.1709 108.956 27.1709C108.701 27.1709 108.489 27.0798 108.32 26.8975C108.156 26.7106 108.074 26.4508 108.074 26.1182ZM112.793 19.7471H112.998V18.626C112.998 18.3252 113.005 18.0905 113.019 17.9219C113.037 17.7487 113.082 17.6006 113.155 17.4775C113.228 17.3499 113.333 17.2474 113.47 17.1699C113.606 17.0879 113.759 17.0469 113.928 17.0469C114.165 17.0469 114.379 17.1357 114.57 17.3135C114.698 17.432 114.778 17.5778 114.81 17.751C114.846 17.9196 114.864 18.1611 114.864 18.4756V19.7471H115.548C115.812 19.7471 116.013 19.8109 116.149 19.9385C116.291 20.0615 116.361 20.221 116.361 20.417C116.361 20.6676 116.261 20.8431 116.061 20.9434C115.865 21.0436 115.582 21.0938 115.213 21.0938H114.864V24.5254C114.864 24.8171 114.873 25.0426 114.892 25.2021C114.914 25.3571 114.969 25.4847 115.056 25.585C115.147 25.6807 115.293 25.7285 115.493 25.7285C115.603 25.7285 115.751 25.7103 115.938 25.6738C116.124 25.6328 116.27 25.6123 116.375 25.6123C116.525 25.6123 116.66 25.6738 116.778 25.7969C116.901 25.9154 116.963 26.0635 116.963 26.2412C116.963 26.542 116.799 26.7721 116.471 26.9316C116.143 27.0911 115.671 27.1709 115.056 27.1709C114.472 27.1709 114.03 27.0729 113.729 26.877C113.429 26.681 113.23 26.4098 113.135 26.0635C113.044 25.7171 112.998 25.2546 112.998 24.6758V21.0938H112.752C112.483 21.0938 112.278 21.0299 112.137 20.9023C111.995 20.7747 111.925 20.613 111.925 20.417C111.925 20.221 111.998 20.0615 112.144 19.9385C112.294 19.8109 112.51 19.7471 112.793 19.7471Z" fill="#304D95"/>
</svg>
